<svg xmlns="http://www.w3.org/2000/svg" viewBox="0 0 201.11 37.34"><defs><style>.cls-1{fill:#fff;}</style></defs><g id="Layer_2" data-name="Layer 2"><g id="Layer_1-2" data-name="Layer 1"><path class="cls-1" d="M59.64,1.44V4.35H48V7.92h9.39v2.91H48v6.48H45.05V1.44Z"/><path class="cls-1" d="M60.08,1.42H63v13h13v2.91H60.08Z"/><path class="cls-1" d="M89.22,1.44h2.93v12.8a3.07,3.07,0,0,1-3.06,3.07H79.35a3.06,3.06,0,0,1-3.06-3.07V1.44H79.2v12.8a.15.15,0,0,0,.15.16h9.74a.15.15,0,0,0,.13-.16Z"/><path class="cls-1" d="M109.34,1.44v.77l-6,7.16,6,7.17v.77h-3.2l-4.74-5.62c-1.56,1.85-3.19,3.77-4.73,5.62h-3.2v-.77l6-7.17-6-7.16V1.44h3.2l4.73,5.62c1.57-1.85,3.2-3.77,4.74-5.62Z"/><path class="cls-1" d="M123.52,1.44a3.08,3.08,0,0,1,3.09,3.07v12.8h-2.93V12h-10v5.34h-2.91V4.51a3.06,3.06,0,0,1,3.07-3.07Zm.16,7.63V4.51a.16.16,0,0,0-.16-.16h-9.71a.16.16,0,0,0-.16.16V9.07Z"/><path class="cls-1" d="M131.3,4.35a.16.16,0,0,0-.16.16v9.73a.16.16,0,0,0,.16.16h12.75v2.91H131.3a3.06,3.06,0,0,1-3.07-3.07V4.51a3.06,3.06,0,0,1,3.07-3.07h12.75V4.35Z"/><path class="cls-1" d="M160.53,1.44V4.35h-6.45v13h-2.93v-13h-6.48V1.44Z"/><path class="cls-1" d="M161.32,1.44h2.91V17.31h-2.91Z"/><path class="cls-1" d="M182.39,1.44h3.37l-9.17,15.87H174L164.8,1.44h3.37l7.12,12.34Z"/><path class="cls-1" d="M201.11,4.35H189.45V7.92h9.39v2.91h-9.39V14.4h11.66v2.91H186.52V1.44h14.59Z"/><path class="cls-1" d="M48.36,25.94a.12.12,0,0,0-.12.12v7.5a.12.12,0,0,0,.12.12H58.2v2.24H48.36A2.35,2.35,0,0,1,46,33.56v-7.5a2.35,2.35,0,0,1,2.36-2.36H58.2v2.24Z"/><path class="cls-1" d="M69.11,23.7a2.36,2.36,0,0,1,2.36,2.36v7.5a2.36,2.36,0,0,1-2.36,2.36H61.6a2.35,2.35,0,0,1-2.36-2.36v-7.5A2.35,2.35,0,0,1,61.6,23.7Zm0,10a.11.11,0,0,0,.1-.12v-7.5a.11.11,0,0,0-.1-.12H61.6a.12.12,0,0,0-.12.12v7.5a.12.12,0,0,0,.12.12Z"/><path class="cls-1" d="M84,23.7h2.46V35.92H84.18V27l-4.63,5.52L74.89,27v9H72.65V23.7H75.1L79.55,29Z"/><path class="cls-1" d="M97.58,23.71A2.38,2.38,0,0,1,100,26.07v3.3a2.38,2.38,0,0,1-2.37,2.36l-7.56,0,0,0v4.19H87.73V23.71Zm.12,2.36a.13.13,0,0,0-.12-.12H90.09a.12.12,0,0,0-.12.12v3.3a.12.12,0,0,0,.12.12h7.49a.12.12,0,0,0,.12-.12Z"/><path class="cls-1" d="M100.49,23.68h2.24v10h10v2.24H100.49Z"/><path class="cls-1" d="M124.3,25.94h-9v2.75h7.24v2.24h-7.24v2.75h9v2.24H113.05V23.7H124.3Z"/><path class="cls-1" d="M137,23.7v2.24h-5v10h-2.25v-10h-5V23.7Z"/><path class="cls-1" d="M148.82,25.94h-9v2.75h7.24v2.24h-7.24v2.75h9v2.24H137.58V23.7h11.24Z"/><path d="M24.17,16.15l8.94-8.94v6.46a.72.72,0,0,0,.72.72h2.79a.72.72,0,0,0,.72-.72V.72A.72.72,0,0,0,36.62,0H23.67A.72.72,0,0,0,23,.72V3.5a.72.72,0,0,0,.72.72h6.46l-8.94,8.94a13.39,13.39,0,1,0,3,3ZM6.89,30.45a9.14,9.14,0,1,1,12.92,0A9.14,9.14,0,0,1,6.89,30.45Z"/></g></g></svg>